<svg id="eXHdF8jbISg1" xmlns="http://www.w3.org/2000/svg" xmlns:xlink="http://www.w3.org/1999/xlink" viewBox="0 0 1920 1080" shape-rendering="geometricPrecision" text-rendering="geometricPrecision" project-id="3ab5fbf3397c47afa17a53a5f49a0568" export-id="4b83ff6635974e34a259b6865ebe6a85" cached="false"><line x1="-2.781203" y1="-279.510845" x2="2.781203" y2="279.510845" transform="translate(383.515913 524.380226)" fill="none" stroke="#3f5787" stroke-width="3"/><line x1="-54.233448" y1="0" x2="54.233448" y2="0" transform="translate(434.968158 244.869381)" fill="none" stroke="#3f5787" stroke-width="3"/><line x1="0" y1="-266.995434" x2="0" y2="266.995434" transform="translate(489.201606 511.864815)" fill="none" stroke="#3f5787" stroke-width="3"/><line x1="-42.153336" y1="0" x2="42.153336" y2="0" transform="translate(531.354942 778.860249)" fill="none" stroke="#3f5787" stroke-width="3"/><line x1="0" y1="220.762058" x2="0" y2="-220.762058" transform="translate(573.508278 558.098191)" fill="none" stroke="#3f5787" stroke-width="3"/><line x1="-24.101785" y1="0" x2="24.101785" y2="0" transform="translate(597.610063 337.336133)" fill="none" stroke="#3f5787" stroke-width="3"/><line x1="0" y1="-140.357449" x2="0" y2="140.357449" transform="translate(621.711848 477.693583)" fill="none" stroke="#3f5787" stroke-width="3"/><line x1="-21.266279" y1="0" x2="21.266279" y2="0" transform="translate(642.978128 618.051032)" fill="none" stroke="#3f5787" stroke-width="3"/><line x1="0" y1="270.790636" x2="0" y2="-270.790635" transform="translate(664.244407 347.260396)" fill="none" stroke="#3f5787" stroke-width="3"/><line x1="-26.937288" y1="0" x2="26.937289" y2="0" transform="translate(691.181695 76.469761)" fill="none" stroke="#3f5787" stroke-width="3"/><line x1="0" y1="-455.098398" x2="0" y2="455.098398" transform="translate(718.118984 531.568159)" fill="none" stroke="#3f5787" stroke-width="3"/><line x1="235.346835" y1="0" x2="-235.346835" y2="0" transform="translate(482.772149 986.666557)" fill="none" stroke="#3f5787" stroke-width="3"/><line x1="0" y1="377.122037" x2="0" y2="-377.122037" transform="translate(247.425314 609.54452)" fill="none" stroke="#3f5787" stroke-width="3"/><line x1="-32.608297" y1="0" x2="32.608296" y2="0" transform="translate(280.033611 232.422483)" fill="none" stroke="#3f5787" stroke-width="3"/><line x1="0" y1="-345.931493" x2="0" y2="345.931493" transform="translate(312.641907 578.353976)" fill="none" stroke="#3f5787" stroke-width="3"/><line x1="-175.80125" y1="0" x2="175.80125" y2="0" transform="translate(488.443157 924.285469)" fill="none" stroke="#3f5787" stroke-width="3"/><line x1="0" y1="60.197199" x2="0" y2="-60.197199" transform="translate(664.244407 864.08827)" fill="none" stroke="#3f5787" stroke-width="3"/><line x1="90.736129" y1="0" x2="-90.736129" y2="0" transform="translate(573.508278 803.891071)" fill="none" stroke="#3f5787" stroke-width="3"/><line x1="0" y1="3.03794" x2="0" y2="-3.03794" transform="translate(2192.581083 350.298336)" fill="none" stroke="#3f5787" stroke-width="3"/></svg>
